<svg xmlns="http://www.w3.org/2000/svg" viewBox="0 0 512 512"><rect width="512" height="512" rx="115.2" ry="115.2" fill="#0D1B33"></rect><g transform="translate(102.4,86.08) scale(0.7999999999999999)"><path d="M 113.3 61.0 L 113.9 62.0 L 114.6 63.0 L 115.3 64.0 L 116.1 65.0 L 117.0 66.0 L 118.0 67.0 L 119.1 68.0 L 120.2 69.0 L 121.3 70.0 L 122.3 71.0 L 123.4 72.0 L 124.5 73.0 L 125.5 74.0 L 126.6 75.0 L 127.7 76.0 L 128.7 77.0 L 129.8 78.0 L 130.9 79.0 L 131.9 80.0 L 133.0 81.0 L 134.0 82.0 L 135.0 83.0 L 136.0 84.0 L 137.0 85.0 L 138.0 86.0 L 139.0 87.0 L 140.0 88.0 L 141.0 89.0 L 142.0 90.0 L 143.0 91.0 L 144.0 92.0 L 144.9 93.0 L 145.9 94.0 L 146.7 95.0 L 147.5 96.0 L 148.3 97.0 L 149.1 98.0 L 149.7 99.0 L 150.3 100.0 L 150.9 101.0 L 151.5 102.0 L 151.9 103.0 L 152.3 104.0 L 152.7 105.0 L 152.9 106.0 L 153.0 107.0 L 153.1 108.0 L 153.2 109.0 L 153.2 110.0 L 153.2 111.0 L 153.1 112.0 L 153.0 113.0 L 152.9 114.0 L 152.7 115.0 L 152.4 116.0 L 152.1 117.0 L 151.7 118.0 L 151.2 119.0 L 150.7 120.0 L 150.1 121.0 L 149.5 122.0 L 148.7 123.0 L 147.9 124.0 L 147.1 125.0 L 146.3 126.0 L 145.3 127.0 L 144.4 128.0 L 143.4 129.0 L 142.4 130.0 L 141.3 131.0 L 140.2 132.0 L 139.1 133.0 L 137.9 134.0 L 136.8 135.0 L 135.7 136.0 L 134.6 137.0 L 133.5 138.0 L 132.5 139.0 L 131.4 140.0 L 130.3 141.0 L 129.3 142.0 L 128.1 143.0 L 127.0 144.0 L 125.9 145.0 L 124.7 146.0 L 123.7 147.0 L 122.6 148.0 L 121.5 149.0 L 120.5 150.0 L 119.5 151.0 L 118.5 152.0 L 117.5 153.0 L 116.6 154.0 L 115.7 155.0 L 114.8 156.0 L 114.0 157.0 L 113.3 158.0 L 112.6 159.0 L 112.0 160.0 L 111.4 161.0 L 110.9 162.0 L 110.4 163.0 L 110.0 164.0 L 109.6 165.0 L 109.3 166.0 L 109.0 167.0 L 108.8 168.0 L 108.6 169.0 L 108.5 170.0 L 108.3 171.0 L 108.2 172.0 L 108.1 173.0 L 108.1 174.0 L 108.0 175.0 L 108.0 176.0 L 108.0 177.0 L 108.0 178.0 L 108.0 179.0 L 108.0 180.0 L 108.0 181.0 L 108.0 182.0 L 108.0 183.0 L 108.0 184.0 L 108.0 185.0 L 108.0 186.0 L 108.0 187.0 L 108.0 188.0 L 108.0 189.0 L 108.0 190.0 L 108.0 191.0 L 108.0 192.0 L 108.0 193.0 L 108.0 194.0 L 108.0 195.0 L 108.0 196.0 L 108.0 197.0 L 108.0 198.0 L 108.0 199.0 L 108.0 200.0 L 108.0 201.0 L 108.0 202.0 L 108.0 203.0 L 108.0 204.0 L 108.0 205.0 L 108.0 206.0 L 108.0 207.0 L 108.0 208.0 L 108.0 209.0 L 108.0 210.0 L 108.0 211.0 L 108.0 212.0 L 108.0 213.0 L 108.0 214.0 L 108.0 215.0 L 108.0 216.0 L 108.0 217.0 L 108.0 218.0 L 108.0 219.0 L 108.0 220.0 L 108.0 221.0 L 108.0 222.0 L 108.0 223.0 L 108.0 224.0 L 108.0 225.0 L 108.0 226.0 L 108.0 227.0 L 108.0 228.0 L 108.0 229.0 L 108.0 230.0 L 108.0 231.0 L 108.0 232.0 L 108.0 233.0 L 108.0 234.0 L 108.0 235.0 L 108.0 236.0 L 108.0 237.0 L 108.0 238.0 L 108.0 239.0 L 108.0 240.0 L 108.0 241.0 L 108.0 242.0 L 108.0 243.0 L 108.0 244.0 L 108.0 245.0 L 108.0 246.0 L 108.0 247.0 L 108.0 248.0 L 108.0 249.0 L 108.0 250.0 L 108.0 251.0 L 108.0 252.0 L 108.0 253.0 L 108.0 254.0 L 108.0 255.0 L 108.0 256.0 L 108.0 257.0 L 108.0 258.0 L 108.0 259.0 L 108.0 260.0 L 108.0 261.0 L 108.0 262.0 L 108.0 263.0 L 108.0 264.0 L 108.0 265.0 L 108.0 266.0 L 108.0 267.0 L 108.0 268.0 L 108.0 269.0 L 108.0 270.0 L 108.0 271.0 L 108.0 272.0 L 108.0 273.0 L 108.0 274.0 L 108.0 275.0 L 108.0 276.0 L 108.0 277.0 L 108.0 278.0 L 108.0 279.0 L 108.0 280.0 L 108.0 281.0 L 108.0 282.0 L 108.0 283.0 L 108.0 284.0 L 108.0 285.0 L 108.0 286.0 L 108.0 287.0 L 108.0 288.0 L 108.0 289.0 L 108.0 290.0 L 108.0 291.0 L 108.0 292.0 L 108.0 293.0 L 108.0 294.0 L 108.0 295.0 L 108.0 296.0 L 108.0 297.0 L 108.0 298.0 L 108.0 299.0 L 108.0 300.0 L 108.0 301.0 L 108.0 302.0 L 108.0 303.0 L 108.0 304.0 L 108.0 305.0 L 108.0 306.0 L 108.0 307.0 L 108.0 308.0 L 108.0 309.0 L 108.0 310.0 L 108.0 311.0 L 108.0 312.0 L 108.0 313.0 L 108.0 314.0 L 108.0 315.0 L 108.0 316.0 L 108.0 317.0 L 108.0 318.0 L 108.0 319.0 L 108.0 320.0 L 108.0 321.0 L 108.0 322.0 L 108.0 323.0 L 108.0 324.0 L 108.0 325.0 L 108.0 326.0 L 108.0 327.0 L 108.0 328.0 L 108.0 329.0 L 108.0 330.0 L 108.0 331.0 L 108.0 332.0 L 108.0 333.0 L 108.0 334.0 L 108.0 335.0 L 108.0 336.0 L 108.0 337.0 L 108.0 338.0 L 108.0 339.0 L 108.0 340.0 L 108.0 341.0 L 108.0 342.0 L 108.0 343.0 L 108.0 344.0 L 108.0 345.0 L 108.0 346.0 L 108.0 347.0 L 108.0 348.0 L 108.0 349.0 L 108.0 350.0 L 108.0 351.0 L 108.0 352.0 L 108.0 353.0 L 108.0 354.0 L 108.0 355.0 L 108.0 356.0 L 108.0 357.0 L 108.0 358.0 L 108.0 359.0 L 108.0 372.0 L 108.0 372.0 L 110.9 372.1 L 113.8 372.1 L 116.6 372.2 L 119.5 372.2 L 122.3 372.3 L 125.1 372.4 L 127.9 372.5 L 130.6 372.6 L 133.4 372.7 L 136.1 372.8 L 138.8 372.9 L 141.5 373.0 L 144.2 373.1 L 146.9 373.2 L 149.5 373.3 L 152.1 373.5 L 154.8 373.6 L 157.3 373.8 L 159.9 373.9 L 162.5 374.1 L 165.0 374.2 L 167.5 374.4 L 170.0 374.5 L 172.5 374.7 L 175.0 374.9 L 177.4 375.1 L 179.9 375.3 L 182.3 375.5 L 184.7 375.6 L 187.1 375.9 L 189.4 376.1 L 191.8 376.3 L 194.1 376.5 L 196.4 376.7 L 198.7 376.9 L 200.9 377.2 L 203.2 377.4 L 205.4 377.7 L 207.6 377.9 L 209.8 378.2 L 212.0 378.4 L 214.2 378.7 L 216.3 379.0 L 218.4 379.2 L 220.5 379.5 L 222.6 379.8 L 224.7 380.1 L 226.7 380.4 L 228.8 380.7 L 230.8 381.0 L 232.8 381.3 L 234.7 381.6 L 236.7 382.0 L 238.6 382.3 L 240.5 382.6 L 242.4 383.0 L 244.3 383.3 L 246.2 383.6 L 248.0 384.0 L 248.0 384.0 L 243.0 385.3 L 238.1 386.5 L 233.3 387.7 L 228.4 388.8 L 223.6 389.9 L 218.9 390.9 L 214.2 391.9 L 209.6 392.8 L 205.0 393.6 L 200.4 394.4 L 195.9 395.2 L 191.5 395.9 L 187.1 396.5 L 182.7 397.1 L 178.4 397.7 L 174.2 398.2 L 170.0 398.6 L 165.8 399.0 L 161.7 399.4 L 157.6 399.7 L 153.6 400.0 L 149.6 400.3 L 145.7 400.4 L 141.9 400.6 L 138.0 400.7 L 134.3 400.8 L 130.6 400.8 L 126.9 400.8 L 123.3 400.8 L 119.7 400.7 L 116.2 400.6 L 112.8 400.4 L 109.4 400.3 L 106.0 400.1 L 102.7 399.8 L 99.5 399.5 L 96.3 399.2 L 93.1 398.9 L 90.1 398.5 L 87.0 398.1 L 84.0 397.7 L 81.1 397.2 L 78.3 396.7 L 75.4 396.2 L 72.7 395.7 L 70.0 395.1 L 67.3 394.6 L 64.7 393.9 L 62.2 393.3 L 59.7 392.7 L 57.3 392.0 L 54.9 391.3 L 52.6 390.6 L 50.4 389.9 L 48.2 389.1 L 46.1 388.4 L 44.0 387.6 L 42.0 386.8 L 40.0 386.0 L 40.0 359.0 L 40.0 358.0 L 40.0 357.0 L 40.0 356.0 L 40.0 355.0 L 40.0 354.0 L 40.0 353.0 L 40.0 352.0 L 40.0 351.0 L 40.0 350.0 L 40.0 349.0 L 40.0 348.0 L 40.0 347.0 L 40.0 346.0 L 40.0 345.0 L 40.0 344.0 L 40.0 343.0 L 40.0 342.0 L 40.0 341.0 L 40.0 340.0 L 40.0 339.0 L 40.0 338.0 L 40.0 337.0 L 40.0 336.0 L 40.0 335.0 L 40.0 334.0 L 40.0 333.0 L 40.0 332.0 L 40.0 331.0 L 40.0 330.0 L 40.0 329.0 L 40.0 328.0 L 40.0 327.0 L 40.0 326.0 L 40.0 325.0 L 40.0 324.0 L 40.0 323.0 L 40.0 322.0 L 40.0 321.0 L 40.0 320.0 L 40.0 319.0 L 40.0 318.0 L 40.0 317.0 L 40.0 316.0 L 40.0 315.0 L 40.0 314.0 L 40.0 313.0 L 40.0 312.0 L 40.0 311.0 L 40.0 310.0 L 40.0 309.0 L 40.0 308.0 L 40.0 307.0 L 40.0 306.0 L 40.0 305.0 L 40.0 304.0 L 40.0 303.0 L 40.0 302.0 L 40.0 301.0 L 40.0 300.0 L 40.0 299.0 L 40.0 298.0 L 40.0 297.0 L 40.0 296.0 L 40.0 295.0 L 40.0 294.0 L 40.0 293.0 L 40.0 292.0 L 40.0 291.0 L 40.0 290.0 L 40.0 289.0 L 40.0 288.0 L 40.0 287.0 L 40.0 286.0 L 40.0 285.0 L 40.0 284.0 L 40.0 283.0 L 40.0 282.0 L 40.0 281.0 L 40.0 280.0 L 40.0 279.0 L 40.0 278.0 L 40.0 277.0 L 40.0 276.0 L 40.0 275.0 L 40.0 274.0 L 40.0 273.0 L 40.0 272.0 L 40.0 271.0 L 40.0 270.0 L 40.0 269.0 L 40.0 268.0 L 40.0 267.0 L 40.0 266.0 L 40.0 265.0 L 40.0 264.0 L 40.0 263.0 L 40.0 262.0 L 40.0 261.0 L 40.0 260.0 L 40.0 259.0 L 40.0 258.0 L 40.0 257.0 L 40.0 256.0 L 40.0 255.0 L 40.0 254.0 L 40.0 253.0 L 40.0 252.0 L 40.0 251.0 L 40.0 250.0 L 40.0 249.0 L 40.0 248.0 L 40.0 247.0 L 40.0 246.0 L 40.0 245.0 L 40.0 244.0 L 40.0 243.0 L 40.0 242.0 L 40.0 241.0 L 40.0 240.0 L 40.0 239.0 L 40.0 238.0 L 40.0 237.0 L 40.0 236.0 L 40.0 235.0 L 40.0 234.0 L 40.0 233.0 L 40.0 232.0 L 40.0 231.0 L 40.0 230.0 L 40.0 229.0 L 40.0 228.0 L 40.0 227.0 L 40.0 226.0 L 40.0 225.0 L 40.0 224.0 L 40.0 223.0 L 40.0 222.0 L 40.0 221.0 L 40.0 220.0 L 40.0 219.0 L 40.0 218.0 L 40.0 217.0 L 40.0 216.0 L 40.0 215.0 L 40.0 214.0 L 40.0 213.0 L 40.0 212.0 L 40.0 211.0 L 40.0 210.0 L 40.0 209.0 L 40.0 208.0 L 40.0 207.0 L 40.0 206.0 L 40.0 205.0 L 40.0 204.0 L 40.0 203.0 L 40.0 202.0 L 40.0 201.0 L 40.0 200.0 L 40.0 199.0 L 40.0 198.0 L 40.0 197.0 L 40.0 196.0 L 40.0 195.0 L 40.0 194.0 L 40.0 193.0 L 40.0 192.0 L 40.0 191.0 L 40.0 190.0 L 40.0 189.0 L 40.0 188.0 L 40.0 187.0 L 40.0 186.0 L 40.0 185.0 L 40.0 184.0 L 40.0 183.0 L 40.0 182.0 L 40.0 181.0 L 40.0 180.0 L 40.0 179.0 L 40.0 178.0 L 40.0 177.0 L 40.0 176.0 L 40.0 175.0 L 40.0 174.0 L 40.0 173.0 L 40.0 172.0 L 40.0 171.0 L 40.0 170.0 L 40.0 169.0 L 40.0 168.0 L 40.0 167.0 L 40.0 166.0 L 40.0 165.0 L 40.0 164.0 L 40.0 163.0 L 40.0 162.0 L 40.0 161.0 L 40.0 160.0 L 40.0 159.0 L 40.0 158.0 L 40.0 157.0 L 40.0 156.0 L 40.0 155.0 L 40.0 154.0 L 40.0 153.0 L 40.0 152.0 L 40.0 151.0 L 40.0 150.0 L 40.0 149.0 L 40.0 148.0 L 40.0 147.0 L 40.0 146.0 L 40.0 145.0 L 40.0 144.0 L 40.0 143.0 L 40.0 142.0 L 40.1 141.0 L 40.1 140.0 L 40.2 139.0 L 40.3 138.0 L 40.3 137.0 L 40.4 136.0 L 40.5 135.0 L 40.7 134.0 L 40.8 133.0 L 41.0 132.0 L 41.2 131.0 L 41.4 130.0 L 41.7 129.0 L 41.9 128.0 L 42.3 127.0 L 42.5 126.0 L 42.9 125.0 L 43.3 124.0 L 43.7 123.0 L 44.1 122.0 L 44.7 121.0 L 45.2 120.0 L 45.8 119.0 L 46.5 118.0 L 47.1 117.0 L 47.9 116.0 L 48.8 115.0 L 49.7 114.0 L 50.6 113.0 L 51.5 112.0 L 52.5 111.0 L 53.5 110.0 L 54.5 109.0 L 55.6 108.0 L 56.7 107.0 L 57.8 106.0 L 58.9 105.0 L 60.1 104.0 L 61.2 103.0 L 62.3 102.0 L 63.4 101.0 L 64.5 100.0 L 65.7 99.0 L 66.8 98.0 L 67.9 97.0 L 69.1 96.0 L 70.2 95.0 L 71.3 94.0 L 72.5 93.0 L 73.7 92.0 L 74.9 91.0 L 76.0 90.0 L 77.1 89.0 L 78.3 88.0 L 79.5 87.0 L 80.7 86.0 L 81.8 85.0 L 82.9 84.0 L 84.1 83.0 L 85.2 82.0 L 86.4 81.0 L 87.6 80.0 L 88.8 79.0 L 89.9 78.0 L 91.1 77.0 L 92.3 76.0 L 93.5 75.0 L 94.7 74.0 L 95.9 73.0 L 97.0 72.0 L 98.2 71.0 L 99.4 70.0 L 100.6 69.0 L 101.8 68.0 L 102.9 67.0 L 103.9 66.0 L 104.9 65.0 L 105.7 64.0 L 106.5 63.0 L 107.3 62.0 L 107.9 61.0 Z" fill="#F6F4EF"></path><path d="M 207.9 61.0 L 207.3 62.0 L 206.6 63.0 L 205.9 64.0 L 205.1 65.0 L 204.2 66.0 L 203.3 67.0 L 202.3 68.0 L 201.2 69.0 L 200.1 70.0 L 199.0 71.0 L 197.9 72.0 L 196.9 73.0 L 195.9 74.0 L 194.9 75.0 L 193.8 76.0 L 192.7 77.0 L 191.7 78.0 L 190.6 79.0 L 189.5 80.0 L 188.5 81.0 L 187.4 82.0 L 186.3 83.0 L 185.3 84.0 L 184.2 85.0 L 183.2 86.0 L 182.1 87.0 L 181.1 88.0 L 180.0 89.0 L 179.0 90.0 L 178.0 91.0 L 177.1 92.0 L 176.1 93.0 L 175.2 94.0 L 174.3 95.0 L 173.5 96.0 L 172.7 97.0 L 171.9 98.0 L 171.3 99.0 L 170.6 100.0 L 170.0 101.0 L 169.5 102.0 L 169.0 103.0 L 168.6 104.0 L 168.3 105.0 L 168.0 106.0 L 167.8 107.0 L 167.7 108.0 L 167.6 109.0 L 167.5 110.0 L 167.6 111.0 L 167.7 112.0 L 167.7 113.0 L 167.9 114.0 L 168.1 115.0 L 168.4 116.0 L 168.7 117.0 L 169.1 118.0 L 169.6 119.0 L 170.1 120.0 L 170.7 121.0 L 171.3 122.0 L 172.0 123.0 L 172.7 124.0 L 173.5 125.0 L 174.3 126.0 L 175.3 127.0 L 176.3 128.0 L 177.3 129.0 L 178.3 130.0 L 179.3 131.0 L 180.4 132.0 L 181.5 133.0 L 182.5 134.0 L 183.6 135.0 L 184.7 136.0 L 185.7 137.0 L 186.8 138.0 L 187.9 139.0 L 188.9 140.0 L 190.0 141.0 L 191.0 142.0 L 192.0 143.0 L 193.1 144.0 L 194.1 145.0 L 195.2 146.0 L 196.3 147.0 L 197.3 148.0 L 198.4 149.0 L 199.4 150.0 L 200.4 151.0 L 201.4 152.0 L 202.3 153.0 L 203.3 154.0 L 204.1 155.0 L 205.0 156.0 L 205.8 157.0 L 206.6 158.0 L 207.3 159.0 L 207.9 160.0 L 208.4 161.0 L 208.9 162.0 L 209.4 163.0 L 209.8 164.0 L 210.2 165.0 L 210.5 166.0 L 210.8 167.0 L 211.1 168.0 L 211.3 169.0 L 211.5 170.0 L 211.6 171.0 L 211.7 172.0 L 211.8 173.0 L 211.9 174.0 L 211.9 175.0 L 212.0 176.0 L 212.0 177.0 L 212.0 178.0 L 212.0 179.0 L 212.0 180.0 L 212.0 181.0 L 212.0 182.0 L 212.0 183.0 L 212.0 184.0 L 212.0 185.0 L 212.0 186.0 L 212.0 187.0 L 212.0 188.0 L 212.0 189.0 L 212.0 190.0 L 212.0 191.0 L 212.0 192.0 L 212.0 193.0 L 212.0 194.0 L 212.0 195.0 L 212.0 196.0 L 212.0 197.0 L 212.0 198.0 L 212.0 199.0 L 212.0 200.0 L 212.0 201.0 L 212.0 202.0 L 212.0 203.0 L 212.0 204.0 L 212.0 205.0 L 212.0 206.0 L 212.0 207.0 L 212.0 208.0 L 212.0 209.0 L 212.0 210.0 L 212.0 211.0 L 212.0 212.0 L 212.0 213.0 L 212.0 214.0 L 212.0 215.0 L 212.0 216.0 L 212.0 217.0 L 212.0 218.0 L 212.0 219.0 L 212.0 220.0 L 212.0 221.0 L 212.0 222.0 L 212.0 223.0 L 212.0 224.0 L 212.0 225.0 L 212.0 226.0 L 212.0 227.0 L 212.0 228.0 L 212.0 229.0 L 212.0 230.0 L 212.0 231.0 L 212.0 232.0 L 212.0 233.0 L 212.0 234.0 L 212.0 235.0 L 212.0 236.0 L 212.0 237.0 L 212.0 238.0 L 212.0 239.0 L 212.0 240.0 L 212.0 241.0 L 212.0 242.0 L 212.0 243.0 L 212.0 244.0 L 212.0 245.0 L 212.0 246.0 L 212.0 247.0 L 212.0 248.0 L 212.0 249.0 L 212.0 250.0 L 212.0 251.0 L 212.0 252.0 L 212.0 253.0 L 212.0 254.0 L 212.0 255.0 L 212.0 256.0 L 212.0 257.0 L 212.0 258.0 L 212.0 259.0 L 212.0 260.0 L 212.0 261.0 L 212.0 262.0 L 212.0 263.0 L 212.0 264.0 L 212.0 265.0 L 212.0 266.0 L 212.0 267.0 L 212.0 268.0 L 212.0 269.0 L 212.0 270.0 L 212.0 271.0 L 212.0 272.0 L 212.0 273.0 L 212.0 274.0 L 212.0 275.0 L 212.0 276.0 L 212.0 277.0 L 212.0 278.0 L 212.0 279.0 L 212.0 280.0 L 212.0 281.0 L 212.0 282.0 L 212.0 283.0 L 212.0 284.0 L 212.0 285.0 L 212.0 286.0 L 212.0 287.0 L 212.0 288.0 L 212.0 289.0 L 212.0 290.0 L 212.0 291.0 L 212.0 292.0 L 212.0 293.0 L 212.0 294.0 L 212.0 295.0 L 212.0 296.0 L 212.0 297.0 L 212.0 298.0 L 212.0 299.0 L 212.0 300.0 L 212.0 301.0 L 212.0 302.0 L 212.0 303.0 L 212.0 304.0 L 212.0 305.0 L 212.0 306.0 L 212.0 307.0 L 212.0 308.0 L 212.0 309.0 L 212.0 310.0 L 212.0 311.0 L 212.0 312.0 L 212.0 313.0 L 212.0 314.0 L 212.0 315.0 L 212.0 316.0 L 212.0 317.0 L 212.0 318.0 L 212.0 319.0 L 212.0 320.0 L 212.0 321.0 L 212.0 322.0 L 212.0 323.0 L 212.0 324.0 L 212.0 325.0 L 212.0 326.0 L 212.0 327.0 L 212.0 328.0 L 212.0 329.0 L 212.0 330.0 L 212.0 331.0 L 212.0 332.0 L 212.0 333.0 L 212.0 334.0 L 212.0 335.0 L 212.0 336.0 L 212.0 337.0 L 212.0 338.0 L 212.0 339.0 L 212.0 340.0 L 212.0 341.0 L 212.0 342.0 L 212.0 343.0 L 212.0 344.0 L 212.0 345.0 L 212.0 346.0 L 212.0 347.0 L 212.0 348.0 L 212.0 349.0 L 212.0 350.0 L 212.0 351.0 L 212.0 352.0 L 212.0 353.0 L 212.0 354.0 L 212.0 355.0 L 212.0 356.0 L 212.0 357.0 L 212.0 358.0 L 212.0 359.0 L 212.0 360.0 L 212.0 361.0 L 212.0 362.0 L 212.0 363.0 L 212.0 364.0 L 212.0 365.0 L 212.0 366.0 L 212.0 367.0 L 212.0 368.0 L 212.0 369.0 L 212.0 370.0 L 212.0 371.0 L 212.0 374.0 L 212.0 374.0 L 214.1 375.3 L 216.3 376.5 L 218.5 377.6 L 220.7 378.7 L 222.9 379.7 L 225.2 380.7 L 227.4 381.5 L 229.7 382.3 L 232.0 383.1 L 234.2 383.7 L 236.5 384.4 L 238.9 384.9 L 241.2 385.4 L 243.5 385.8 L 245.9 386.2 L 248.2 386.5 L 250.6 386.7 L 252.9 386.9 L 255.3 387.1 L 257.7 387.1 L 260.1 387.2 L 262.4 387.1 L 264.8 387.0 L 267.2 386.9 L 269.6 386.7 L 271.9 386.5 L 274.3 386.2 L 276.7 385.8 L 279.1 385.5 L 281.4 385.0 L 283.8 384.5 L 286.1 384.0 L 288.5 383.5 L 290.8 382.8 L 293.2 382.2 L 295.5 381.5 L 297.8 380.8 L 300.1 380.0 L 302.4 379.2 L 304.6 378.3 L 306.9 377.4 L 309.1 376.5 L 311.3 375.5 L 313.5 374.5 L 315.7 373.5 L 317.9 372.4 L 320.1 371.3 L 322.2 370.2 L 324.3 369.1 L 326.4 367.9 L 328.4 366.7 L 330.5 365.4 L 332.5 364.1 L 334.5 362.8 L 336.4 361.5 L 338.4 360.2 L 340.3 358.8 L 342.2 357.4 L 344.0 356.0 L 344.0 356.0 L 342.1 356.5 L 340.2 357.0 L 338.3 357.4 L 336.5 357.8 L 334.7 358.2 L 332.9 358.6 L 331.2 359.0 L 329.5 359.3 L 327.8 359.6 L 326.1 359.9 L 324.5 360.1 L 322.9 360.4 L 321.4 360.6 L 319.8 360.8 L 318.3 361.0 L 316.8 361.2 L 315.4 361.3 L 314.0 361.4 L 312.6 361.6 L 311.2 361.7 L 309.9 361.7 L 308.6 361.8 L 307.3 361.9 L 306.1 361.9 L 304.9 361.9 L 303.7 361.9 L 302.5 361.9 L 301.4 361.9 L 300.3 361.9 L 299.2 361.9 L 298.2 361.8 L 297.2 361.7 L 296.2 361.7 L 295.2 361.6 L 294.3 361.5 L 293.4 361.4 L 292.6 361.3 L 291.7 361.2 L 290.9 361.1 L 290.2 361.0 L 289.4 360.8 L 288.7 360.7 L 288.0 360.5 L 287.3 360.4 L 286.7 360.2 L 286.1 360.1 L 285.6 359.9 L 285.0 359.8 L 284.5 359.6 L 284.0 359.5 L 283.6 359.3 L 283.1 359.1 L 282.7 359.0 L 282.4 358.8 L 282.0 358.6 L 281.7 358.5 L 281.5 358.3 L 281.2 358.2 L 281.0 358.0 L 281.0 371.0 L 281.0 370.0 L 281.0 369.0 L 281.0 368.0 L 281.0 367.0 L 281.0 366.0 L 281.0 365.0 L 281.0 364.0 L 281.0 363.0 L 281.0 362.0 L 281.0 361.0 L 281.0 360.0 L 281.0 359.0 L 281.0 358.0 L 281.0 357.0 L 281.0 356.0 L 281.0 355.0 L 281.0 354.0 L 281.0 353.0 L 281.0 352.0 L 281.0 351.0 L 281.0 350.0 L 281.0 349.0 L 281.0 348.0 L 281.0 347.0 L 281.0 346.0 L 281.0 345.0 L 281.0 344.0 L 281.0 343.0 L 281.0 342.0 L 281.0 341.0 L 281.0 340.0 L 281.0 339.0 L 281.0 338.0 L 281.0 337.0 L 281.0 336.0 L 281.0 335.0 L 281.0 334.0 L 281.0 333.0 L 281.0 332.0 L 281.0 331.0 L 281.0 330.0 L 281.0 329.0 L 281.0 328.0 L 281.0 327.0 L 281.0 326.0 L 281.0 325.0 L 281.0 324.0 L 281.0 323.0 L 281.0 322.0 L 281.0 321.0 L 281.0 320.0 L 281.0 319.0 L 281.0 318.0 L 281.0 317.0 L 281.0 316.0 L 281.0 315.0 L 281.0 314.0 L 281.0 313.0 L 281.0 312.0 L 281.0 311.0 L 281.0 310.0 L 281.0 309.0 L 281.0 308.0 L 281.0 307.0 L 281.0 306.0 L 281.0 305.0 L 281.0 304.0 L 281.0 303.0 L 281.0 302.0 L 281.0 301.0 L 281.0 300.0 L 281.0 299.0 L 281.0 298.0 L 281.0 297.0 L 281.0 296.0 L 281.0 295.0 L 281.0 294.0 L 281.0 293.0 L 281.0 292.0 L 281.0 291.0 L 281.0 290.0 L 281.0 289.0 L 281.0 288.0 L 281.0 287.0 L 281.0 286.0 L 281.0 285.0 L 281.0 284.0 L 281.0 283.0 L 281.0 282.0 L 281.0 281.0 L 281.0 280.0 L 281.0 279.0 L 281.0 278.0 L 281.0 277.0 L 281.0 276.0 L 281.0 275.0 L 281.0 274.0 L 281.0 273.0 L 281.0 272.0 L 281.0 271.0 L 281.0 270.0 L 281.0 269.0 L 281.0 268.0 L 281.0 267.0 L 281.0 266.0 L 281.0 265.0 L 281.0 264.0 L 281.0 263.0 L 281.0 262.0 L 281.0 261.0 L 281.0 260.0 L 281.0 259.0 L 281.0 258.0 L 281.0 257.0 L 281.0 256.0 L 281.0 255.0 L 281.0 254.0 L 281.0 253.0 L 281.0 252.0 L 281.0 251.0 L 281.0 250.0 L 281.0 249.0 L 281.0 248.0 L 281.0 247.0 L 281.0 246.0 L 281.0 245.0 L 281.0 244.0 L 281.0 243.0 L 281.0 242.0 L 281.0 241.0 L 281.0 240.0 L 281.0 239.0 L 281.0 238.0 L 281.0 237.0 L 281.0 236.0 L 281.0 235.0 L 281.0 234.0 L 281.0 233.0 L 281.0 232.0 L 281.0 231.0 L 281.0 230.0 L 281.0 229.0 L 281.0 228.0 L 281.0 227.0 L 281.0 226.0 L 281.0 225.0 L 281.0 224.0 L 281.0 223.0 L 281.0 222.0 L 281.0 221.0 L 281.0 220.0 L 281.0 219.0 L 281.0 218.0 L 281.0 217.0 L 281.0 216.0 L 281.0 215.0 L 281.0 214.0 L 281.0 213.0 L 281.0 212.0 L 281.0 211.0 L 281.0 210.0 L 281.0 209.0 L 281.0 208.0 L 281.0 207.0 L 281.0 206.0 L 281.0 205.0 L 281.0 204.0 L 281.0 203.0 L 281.0 202.0 L 281.0 201.0 L 281.0 200.0 L 281.0 199.0 L 281.0 198.0 L 281.0 197.0 L 281.0 196.0 L 281.0 195.0 L 281.0 194.0 L 281.0 193.0 L 281.0 192.0 L 281.0 191.0 L 281.0 190.0 L 281.0 189.0 L 281.0 188.0 L 281.0 187.0 L 281.0 186.0 L 281.0 185.0 L 281.0 184.0 L 281.0 183.0 L 281.0 182.0 L 281.0 181.0 L 281.0 180.0 L 281.0 179.0 L 281.0 178.0 L 281.0 177.0 L 281.0 176.0 L 281.0 175.0 L 281.0 174.0 L 281.0 173.0 L 281.0 172.0 L 281.0 171.0 L 281.0 170.0 L 281.0 169.0 L 281.0 168.0 L 281.0 167.0 L 281.0 166.0 L 281.0 165.0 L 281.0 164.0 L 281.0 163.0 L 281.0 162.0 L 281.0 161.0 L 281.0 160.0 L 281.0 159.0 L 281.0 158.0 L 281.0 157.0 L 281.0 156.0 L 281.0 155.0 L 281.0 154.0 L 281.0 153.0 L 281.0 152.0 L 281.0 151.0 L 281.0 150.0 L 281.0 149.0 L 281.0 148.0 L 281.0 147.0 L 281.0 146.0 L 281.0 145.0 L 281.0 144.0 L 281.0 143.0 L 281.0 142.0 L 281.0 141.0 L 281.0 140.0 L 281.0 139.0 L 281.0 138.0 L 280.9 137.0 L 280.9 136.0 L 280.8 135.0 L 280.7 134.0 L 280.6 133.0 L 280.5 132.0 L 280.3 131.0 L 280.1 130.0 L 279.9 129.0 L 279.7 128.0 L 279.4 127.0 L 279.1 126.0 L 278.7 125.0 L 278.3 124.0 L 277.9 123.0 L 277.4 122.0 L 276.9 121.0 L 276.4 120.0 L 275.8 119.0 L 275.2 118.0 L 274.5 117.0 L 273.7 116.0 L 272.9 115.0 L 272.0 114.0 L 271.1 113.0 L 270.2 112.0 L 269.3 111.0 L 268.3 110.0 L 267.3 109.0 L 266.3 108.0 L 265.3 107.0 L 264.1 106.0 L 263.0 105.0 L 261.9 104.0 L 260.7 103.0 L 259.7 102.0 L 258.6 101.0 L 257.5 100.0 L 256.4 99.0 L 255.3 98.0 L 254.1 97.0 L 253.0 96.0 L 251.9 95.0 L 250.7 94.0 L 249.6 93.0 L 248.5 92.0 L 247.4 91.0 L 246.3 90.0 L 245.1 89.0 L 244.0 88.0 L 242.9 87.0 L 241.7 86.0 L 240.6 85.0 L 239.5 84.0 L 238.4 83.0 L 237.3 82.0 L 236.1 81.0 L 235.0 80.0 L 233.9 79.0 L 232.7 78.0 L 231.5 77.0 L 230.3 76.0 L 229.1 75.0 L 228.0 74.0 L 226.9 73.0 L 225.7 72.0 L 224.5 71.0 L 223.3 70.0 L 222.1 69.0 L 220.9 68.0 L 219.8 67.0 L 218.7 66.0 L 217.7 65.0 L 216.8 64.0 L 216.0 63.0 L 215.3 62.0 L 214.6 61.0 Z" fill="#15707E"></path><path d="M 160.0 24.0 L 172.7 45.6 L 174.4 46.8 L 176.1 48.2 L 177.6 49.6 L 178.9 51.2 L 180.1 52.9 L 181.2 54.7 L 182.1 56.6 L 182.8 58.6 L 183.4 60.6 L 183.8 62.7 L 184.0 64.7 L 184.0 66.8 L 183.8 68.9 L 183.5 71.0 L 183.0 73.0 L 182.3 75.0 L 181.4 76.9 L 180.4 78.7 L 179.2 80.4 L 177.8 82.1 L 176.4 83.6 L 174.8 84.9 L 173.1 86.1 L 171.3 87.2 L 169.4 88.1 L 167.4 88.8 L 165.4 89.4 L 163.3 89.8 L 161.3 90.0 L 159.2 90.0 L 157.1 89.8 L 155.0 89.5 L 153.0 89.0 L 151.0 88.3 L 149.1 87.4 L 147.3 86.4 L 145.6 85.2 L 143.9 83.8 L 142.4 82.4 L 141.1 80.8 L 139.9 79.1 L 138.8 77.3 L 137.9 75.4 L 137.2 73.4 L 136.6 71.4 L 136.2 69.3 L 136.0 67.3 L 136.0 65.2 L 136.2 63.1 L 136.5 61.0 L 137.0 59.0 L 137.7 57.0 L 138.6 55.1 L 139.6 53.3 L 140.8 51.6 L 142.2 49.9 L 143.6 48.4 L 145.2 47.1 L 146.9 45.9 Z" fill="#C49A3F"></path></g></svg>